<?xml version="1.0" encoding="UTF-8" standalone="no"?>
<svg width="23px" height="30px" viewBox="0 0 23 30" version="1.1" xmlns="http://www.w3.org/2000/svg" xmlns:xlink="http://www.w3.org/1999/xlink">
    <!-- Generator: Sketch 46.2 (44496) - http://www.bohemiancoding.com/sketch -->
    <title>Page 1</title>
    <desc>Created with Sketch.</desc>
    <defs></defs>
    <g id="Symbols" stroke="none" stroke-width="1" fill="none" fill-rule="evenodd">
        <g id="icon_comunicados&amp;eventos" transform="translate(-4.000000, 0.000000)" fill="#676B71">
            <g id="Page-1" transform="translate(4.000000, 0.000000)">
                <path d="M4.80953193,-1.91082803e-05 L4.80953193,4.75507643 L1.93277313e-05,4.75507643 L1.93277313e-05,29.9319554 L18.0231286,29.9319554 L18.0231286,25.1755223 L22.8339941,25.1755223 L22.8339941,4.98819745 L17.7877168,-1.91082803e-05 L4.80953193,-1.91082803e-05 Z M5.67290168,0.852783439 L17.1763807,0.852783439 L17.1763807,5.59049045 L21.9708176,5.59049045 L21.9708176,24.3229108 L18.0231286,24.3229108 L18.0231286,9.74348408 L12.9768513,4.75507643 L5.67290168,4.75507643 L5.67290168,0.852783439 Z M18.0395571,1.4566051 L21.3608345,4.73864331 L18.0395571,4.73864331 L18.0395571,1.4566051 Z M0.863389076,5.6076879 L12.3668681,5.6076879 L12.3668681,10.3467325 L17.1595655,10.3467325 L17.1595655,29.0793439 L0.863389076,29.0793439 L0.863389076,5.6076879 Z M13.2300445,6.21150955 L16.5497756,9.49373885 L13.2300445,9.49373885 L13.2300445,6.21150955 Z" id="Fill-1"></path>
                <polygon id="Fill-2" points="3.47145378 20.1385987 14.5532017 20.1385987 14.5532017 19.2857962 3.47145378 19.2857962"></polygon>
                <polygon id="Fill-3" points="3.47145378 23.3394268 14.5532017 23.3394268 14.5532017 22.4868153 3.47145378 22.4868153"></polygon>
                <polygon id="Fill-4" points="3.47145378 26.5383439 14.5532017 26.5383439 14.5532017 25.6855414 3.47145378 25.6855414"></polygon>
                <path d="M3.5547563,16.4485987 L10.4748571,16.4485987 L10.4748571,9.60630573 L3.5547563,9.60630573 L3.5547563,16.4485987 Z M4.41812605,15.5950318 L9.61303361,15.5950318 L9.61303361,10.4596815 L4.41812605,10.4596815 L4.41812605,15.5950318 Z" id="Fill-5"></path>
            </g>
        </g>
    </g>
</svg>
